<svg xmlns="http://www.w3.org/2000/svg" viewBox="0 0 566 979.82"><defs><style>.cls-1{fill:#1d4ed8;}.cls-2{fill:#fcfcfc;}</style></defs><g id="Layer_2" data-name="Layer 2"><g id="Layer_1-2" data-name="Layer 1"><circle class="cls-1" cx="283" cy="345.92" r="283"/><path class="cls-2" d="M390.38,979.43c12.87-37.74,26.15-72.87,36.8-108.78,14.81-50,26.18-100.94,24.64-153.44a206.5,206.5,0,0,0-10.75-59.47c-9-26.45-30.93-38.94-59.56-38.58-27.77.35-49.56,12.28-58.08,38.94-6.67,20.87-11.53,43.62-10.78,65.32,2.44,71.25,17.1,140.25,46,205.92,2.31,5.25,1.62,13.07-.37,18.75-11.48,32.66-11.76,32.57-46.21,31.37-1.53-.05-3-.4-6.76-.92,3.31-8.78,6-17.07,9.55-25a52.84,52.84,0,0,0,3.27-34.22C302.32,847.91,285,777,261.53,707.59,235.42,630.39,227.1,551.13,246,470.66c11.56-49.17,35.2-91.67,71.85-126.76,32.59-31.19,41.25-70.76,24.94-112.53-17.06-43.7-35.35-87.06-41.7-134-3.81-28.13-4.1-56.24,7.6-83.06A68.83,68.83,0,0,1,317.08,0c-15.28,47-6.46,91.19,13.16,135l13.59-41.61,2.45.86c-1.4,14.93-4.32,29.93-3.72,44.78a105.3,105.3,0,0,0,8.37,36c8.54,20,19.22,39.19,29.74,60.2,2.92-8.79,5.37-16.15,7.81-23.51-4,28.2,5.55,52.29,18.18,76.25,19.13,36.3,36.95,73.29,55.29,110,4.61,9.25,2.83,14.18-7.62,14.76-8.59.47-18.19-1.05-25.9-4.72-14-6.68-27.18-15.3-40.35-23.67-18.15-11.55-29.52-11-45,4-37.19,36-32,93-13.28,126.26,4.5,8,11.41,5.71,18.59,4,54-13.16,103.23-4.09,142,37.38,14.52,15.53,25.5,35.77,33.52,55.7,16.88,41.95,19.22,86.51,16.84,131.91-4.73-13-8.38-25.77-14.1-37.52-2.48-5.1-9.68-11.7-13.93-11.17-5.26.67-11.86,7.15-14.07,12.65-7.58,18.86-4.67,38.58-.66,57.79,1.59,7.61.37,13.18-3.8,19.55-29.27,44.71-47,92.94-48.11,147.33-.32,14.79-9.45,29.43-14.91,44-.58,1.57-3.6,3.09-5.53,3.13C414.05,979.57,402.47,979.43,390.38,979.43Z"/></g></g></svg>